<?xml version="1.0" encoding="iso-8859-1"?>
<svg height="800px" width="800px" version="1.1" id="Layer_1"
  xmlns="http://www.w3.org/2000/svg"
  xmlns:xlink="http://www.w3.org/1999/xlink" viewBox="0 0 512 512" xml:space="preserve">
  <path style="fill:#C6C6C6;" d="M464.837,385.451L270.505,496.696c-6.56,3.755-14.643,3.755-21.203,0L54.969,385.451
	c-6.56-3.755-10.602-10.696-10.602-18.207V144.756c0-7.511,4.041-14.452,10.602-18.207L249.302,15.304
	c6.56-3.755,14.643-3.755,21.203,0l194.333,111.244c6.56,3.755,10.602,10.696,10.602,18.207v222.488
	C475.439,374.755,471.397,381.696,464.837,385.451z"/>
  <path style="fill:#777777;" d="M488.627,388.174c-1.535,2.678-4.322,4.175-7.187,4.175c-1.407,0-2.832-0.361-4.137-1.12
	L266.811,268.852v234.8c0,4.61-3.711,8.348-8.29,8.348c-4.579,0-8.29-3.738-8.29-8.348V270.46L42.504,391.229
	c-1.304,0.759-2.731,1.12-4.137,1.12c-2.865,0-5.652-1.497-7.187-4.175c-2.29-3.992-0.931-9.098,3.034-11.403l209.11-121.574
	L36.977,135.229c-3.965-2.305-5.324-7.411-3.034-11.403c2.288-3.992,7.356-5.362,11.324-3.055l204.965,119.164V8.348
	c0-4.61,3.711-8.348,8.29-8.348c4.579,0,8.29,3.738,8.29,8.348v233.194L474.54,120.771c3.964-2.306,9.036-0.937,11.324,3.055
	c2.29,3.992,0.931,9.098-3.034,11.403L276.483,255.196l209.11,121.574C489.558,379.076,490.917,384.181,488.627,388.174z"/>
  <path style="fill:#FF8655;" d="M420.612,348.631l-160.709,91.544L44.367,378.991l54.827-217.229l159.327-84.405l162.09,84.405
	v186.869H420.612z"/>
  <path style="fill:#FF6029;" d="M353.854,210.214v89.966l66.757,38.812v9.639l-8.375,4.771l-66.769-38.819L266.81,359.61v76.631
	l-6.909,3.935l-9.671-2.746v-79.402l-75.894-43.444L57.258,382.651l-12.891-3.66l2.403-9.521l119.181-69.29v-89.966l-68.88-40.046
	l2.121-8.406l8.675-4.596l67.861,39.454l74.502-42.647V81.749l8.29-4.392l8.29,4.316v70.717l77.265,44.23l67.79-39.412l8.746,4.555
	v9.639L353.854,210.214z"/>
  <g>
    <path style="fill:#B7441C;" d="M353.854,210.214l-77.372,44.983l77.372,44.983v4.311c0,3.275-1.762,6.3-4.621,7.936l-3.764,2.155
		l-78.658-45.73v90.758l-2.286,1.309c-2.859,1.637-6.383,1.637-9.243,0l-5.051-2.891v-87.569l-75.894,44.123l-3.765-2.155
		c-2.859-1.637-4.621-4.663-4.621-7.936v-4.311l77.372-44.984l-77.372-44.984v-2.705c0-3.273,1.762-6.3,4.621-7.936l5.158-2.952
		l74.502,43.314v-85.961l5.051-2.891c2.859-1.637,6.383-1.637,9.243,0l2.286,1.309v89.151l77.265-44.921l5.157,2.952
		c2.859,1.637,4.621,4.663,4.621,7.936V210.214z"/>
    <path style="fill:#B7441C;" d="M282.009,81.564c0,12.295-9.897,22.261-22.106,22.261c-12.209,0-22.106-9.966-22.106-22.261
		s9.897-22.261,22.106-22.261C272.112,59.303,282.009,69.269,282.009,81.564z M44.367,356.73c-12.209,0-22.106,9.966-22.106,22.261
		c0,12.295,9.897,22.261,22.106,22.261s22.106-9.966,22.106-22.261C66.473,366.697,56.576,356.73,44.367,356.73z M417.41,323.339
		c-12.209,0-22.106,9.966-22.106,22.261c0,12.295,9.897,22.261,22.106,22.261s22.106-9.966,22.106-22.261
		C439.516,333.305,429.619,323.339,417.41,323.339z M258.521,417.914c-12.209,0-22.106,9.966-22.106,22.261
		c0,12.295,9.897,22.261,22.106,22.261c12.209,0,22.106-9.966,22.106-22.261C280.627,427.881,270.73,417.914,258.521,417.914z
		 M100.001,139.501c-12.209,0-22.106,9.966-22.106,22.261s9.897,22.261,22.106,22.261s22.106-9.966,22.106-22.261
		C122.107,149.468,112.21,139.501,100.001,139.501z M417.41,184.023c12.209,0,22.106-9.966,22.106-22.261
		s-9.897-22.261-22.106-22.261s-22.106,9.966-22.106,22.261S405.201,184.023,417.41,184.023z"/>
  </g>
</svg>
